<svg width="1081" height="202" viewBox="0 0 1081 202" fill="none" xmlns="http://www.w3.org/2000/svg">
<rect x="5" y="5" width="1071" height="192" rx="9" fill="#18181B" stroke="#737382" stroke-width="10"/>
<path d="M67.336 134V63.92H78.232V134H67.336ZM48.616 63.92H96.904V73.04H48.616V63.92ZM107.763 108.944C107.763 103.344 108.819 98.592 110.931 94.688C113.043 90.784 116.019 87.84 119.859 85.856C123.699 83.872 128.195 82.88 133.347 82.88C138.115 82.88 142.179 83.712 145.539 85.376C148.899 87.04 151.459 89.552 153.219 92.912C154.979 96.24 155.859 100.368 155.859 105.296V109.856H116.019V103.136H147.747L145.443 105.104V103.184C145.443 99.248 144.323 96.304 142.083 94.352C139.843 92.368 136.819 91.376 133.011 91.376C128.467 91.376 124.931 92.848 122.403 95.792C119.875 98.704 118.611 103.088 118.611 108.944C118.611 114.736 119.843 119.136 122.307 122.144C124.803 125.12 128.355 126.608 132.963 126.608C135.907 126.608 138.419 126 140.499 124.784C142.611 123.536 144.227 121.648 145.347 119.12L155.667 120.704C154.515 123.936 152.835 126.624 150.627 128.768C148.419 130.912 145.811 132.512 142.803 133.568C139.827 134.624 136.531 135.152 132.915 135.152C127.891 135.152 123.491 134.16 119.715 132.176C115.939 130.16 112.995 127.2 110.883 123.296C108.803 119.36 107.763 114.576 107.763 108.944ZM178.719 84.032L218.271 134H205.551L166.143 84.032H178.719ZM205.551 84.032H217.503L195.711 111.824L189.855 105.152L205.551 84.032ZM177.759 134H165.423L188.175 105.152L193.743 112.256L177.759 134ZM240.026 69.056H250.682V118.112C250.682 121.088 251.306 123.28 252.554 124.688C253.834 126.096 255.61 126.8 257.882 126.8C260.186 126.8 261.962 126.096 263.21 124.688C264.49 123.248 265.13 121.072 265.13 118.16V115.472H272.906V117.632C272.906 121.568 272.314 124.816 271.13 127.376C269.946 129.936 268.138 131.872 265.706 133.184C263.274 134.464 260.17 135.104 256.394 135.104C250.89 135.104 246.778 133.712 244.058 130.928C241.37 128.112 240.026 123.696 240.026 117.68V69.056ZM272.378 84.032V92.672H226.298V84.032H243.05H244.442H272.378ZM348.384 134V63.92H359.328V134H348.384ZM386.352 105.152H355.008V96.368H386.352V105.152ZM354.288 73.04V63.92H392.304V73.04H354.288ZM424.62 134V89.6L426.78 92.576H407.532V84.032L433.98 82.88L435.276 84.176V134H424.62ZM407.532 125.36H452.364V134H407.532V125.36ZM428.028 72.944C426.556 72.944 425.26 72.672 424.14 72.128C423.02 71.552 422.14 70.736 421.5 69.68C420.86 68.624 420.54 67.392 420.54 65.984C420.54 63.872 421.228 62.208 422.604 60.992C423.98 59.744 425.788 59.12 428.028 59.12C430.268 59.12 432.076 59.744 433.452 60.992C434.828 62.208 435.516 63.872 435.516 65.984C435.516 68.128 434.828 69.824 433.452 71.072C432.076 72.32 430.268 72.944 428.028 72.944ZM464.951 108.944C464.951 103.344 466.007 98.592 468.119 94.688C470.231 90.784 473.207 87.84 477.047 85.856C480.887 83.872 485.383 82.88 490.535 82.88C495.303 82.88 499.367 83.712 502.727 85.376C506.087 87.04 508.647 89.552 510.407 92.912C512.167 96.24 513.047 100.368 513.047 105.296V109.856H473.207V103.136H504.935L502.631 105.104V103.184C502.631 99.248 501.511 96.304 499.271 94.352C497.031 92.368 494.007 91.376 490.199 91.376C485.655 91.376 482.119 92.848 479.591 95.792C477.063 98.704 475.799 103.088 475.799 108.944C475.799 114.736 477.031 119.136 479.495 122.144C481.991 125.12 485.543 126.608 490.151 126.608C493.095 126.608 495.607 126 497.687 124.784C499.799 123.536 501.415 121.648 502.535 119.12L512.855 120.704C511.703 123.936 510.023 126.624 507.815 128.768C505.607 130.912 502.999 132.512 499.991 133.568C497.015 134.624 493.719 135.152 490.103 135.152C485.079 135.152 480.679 134.16 476.903 132.176C473.127 130.16 470.183 127.2 468.071 123.296C465.991 119.36 464.951 114.576 464.951 108.944ZM526.594 125.36H571.426V134H526.594V125.36ZM543.682 134L543.73 66.128L545.89 69.104H526.642V60.56L553.042 59.408L554.386 60.704L554.338 134H543.682ZM619.341 60.56H629.997V134H620.829L619.821 124.976H619.341V60.56ZM584.013 109.136C584.013 103.824 584.765 99.2 586.269 95.264C587.773 91.328 589.981 88.288 592.893 86.144C595.837 84 599.405 82.928 603.597 82.928C607.053 82.928 610.029 83.616 612.525 84.992C615.053 86.336 617.117 88.16 618.717 90.464H621.069V97.952C619.021 95.776 616.909 94.208 614.733 93.248C612.557 92.288 610.301 91.808 607.965 91.808C605.117 91.808 602.717 92.448 600.765 93.728C598.845 94.976 597.389 96.896 596.397 99.488C595.405 102.048 594.909 105.264 594.909 109.136C594.909 112.976 595.389 116.16 596.349 118.688C597.341 121.216 598.797 123.104 600.717 124.352C602.637 125.6 605.021 126.224 607.869 126.224C610.237 126.224 612.509 125.76 614.685 124.832C616.861 123.872 618.989 122.304 621.069 120.128V127.616H618.765C616.909 129.92 614.701 131.76 612.141 133.136C609.581 134.512 606.605 135.2 603.213 135.2C599.053 135.2 595.533 134.128 592.653 131.984C589.805 129.808 587.645 126.784 586.173 122.912C584.733 119.008 584.013 114.416 584.013 109.136Z" fill="white"/>
</svg>
