<svg width="600" height="600" viewBox="0 0 600 600" fill="none" xmlns="http://www.w3.org/2000/svg">
<rect width="600" height="600" rx="300" fill="#121A19"/>
<path d="M491 165L360.341 419.007L352.067 435H300.714L292.527 419.007H292.567L326.414 353.106V353.066L423.179 165H491Z" fill="url(#paint0_linear_1134_2)"/>
<path d="M326.414 353.106L292.567 419.007H292.527V418.96L326.367 353.106H326.414Z" fill="#FFCE00"/>
<path d="M213.695 353.019V353.106L179.808 419.047L108 279.623H175.948L189.079 305.207L213.695 353.019Z" fill="white"/>
<path d="M270.078 243.555L236.096 309.448L189.474 218.889H257.375L262.318 228.638L270.078 243.555Z" fill="white"/>
<path d="M326.414 353.066V353.106H326.367L292.527 418.96L270.118 375.477L270.078 375.39L303.918 309.535H304.005L326.414 353.066Z" fill="white"/>
<path d="M326.414 353.106L292.567 419.007H292.527V418.96L326.367 353.106H326.414Z" fill="black"/>
<path d="M270.078 375.39L247.716 419.015L239.435 435H188.019L179.808 419.015L213.695 353.074V352.987L224.88 331.226L236.096 309.504V309.417L270.078 375.39ZM310.499 165L270.078 243.555L303.918 309.535H304.005L378.289 165H310.499Z" fill="url(#paint1_linear_1134_2)"/>
<path d="M303.918 309.535L270.078 375.39L236.096 309.448L270.078 243.555L303.918 309.535Z" fill="#31564F"/>
<defs>
<linearGradient id="paint0_linear_1134_2" x1="299.492" y1="435" x2="299.492" y2="165" gradientUnits="userSpaceOnUse">
<stop stop-color="#02B361"/>
<stop offset="1" stop-color="#06D77B"/>
</linearGradient>
<linearGradient id="paint1_linear_1134_2" x1="299.5" y1="435" x2="299.5" y2="165" gradientUnits="userSpaceOnUse">
<stop stop-color="#02B361"/>
<stop offset="1" stop-color="#06D77B"/>
</linearGradient>
</defs>
</svg>
