<svg width="1149" height="168" viewBox="0 0 1149 168" fill="none" xmlns="http://www.w3.org/2000/svg">
<path d="M107.547 32H32.6793V66.6H101.334V98.6H32.7182V164.73H0V0H107.547V32Z" fill="white"/>
<path d="M136.123 51.78C148.783 38.9067 164.265 32.4733 182.57 32.48C200.876 32.4867 216.397 38.92 229.134 51.78C241.891 64.64 248.272 80.7133 248.279 100C248.279 119.46 241.985 135.58 229.397 148.36C216.809 161.14 201.209 167.54 182.599 167.56C164.145 167.56 148.624 161.127 136.036 148.26C123.448 135.393 117.157 119.307 117.163 100C117.163 80.7133 123.483 64.64 136.123 51.78ZM205.799 74.37C199.628 67.7767 191.885 64.48 182.57 64.48C173.256 64.48 165.516 67.7767 159.352 74.37C153.168 80.9567 150.076 89.5066 150.076 100.02C150.076 110.533 153.168 119.083 159.352 125.67C165.529 132.257 173.269 135.553 182.57 135.56C191.872 135.567 199.615 132.27 205.799 125.67C211.97 119.077 215.058 110.527 215.065 100.02C215.071 89.5133 211.992 80.9633 205.828 74.37H205.799Z" fill="white"/>
<path d="M338.655 32.48C341.102 32.5009 343.546 32.6578 345.976 32.95V67.54C342.622 67.23 339.948 67.07 337.974 67.07C326.378 67.07 317.034 70.17 309.942 76.37C302.851 82.57 299.302 92.8067 299.296 107.08V164.74H266.577V35.3H299.296V57.89C307.081 40.95 320.2 32.48 338.655 32.48Z" fill="white"/>
<path d="M509.81 32.48C523.209 32.48 533.797 36.95 541.576 45.89C549.354 54.83 553.243 67.1633 553.243 82.89V164.79H520.564V90.14C520.564 81.66 518.85 75.2633 515.421 70.95C511.992 66.6366 506.449 64.48 498.794 64.48C490.251 64.48 483.769 67.2666 479.348 72.84C474.927 78.4133 472.717 86.3733 472.717 96.72V164.72H440.018V90.14C440.018 81.66 438.304 75.2633 434.875 70.95C431.446 66.6366 425.916 64.48 418.287 64.48C409.744 64.48 403.223 67.2666 398.724 72.84C394.226 78.4133 391.973 86.3733 391.967 96.72L392.2 164.72H359.248V35.3H392.2V52.48C401.346 39.1466 413.779 32.48 429.498 32.48C447.822 32.48 460.55 40.6533 467.68 57C477.462 40.66 491.505 32.4866 509.81 32.48Z" fill="white"/>
<path d="M1000.4 32.48C1002.85 32.5011 1005.3 32.658 1007.73 32.95V67.54C1004.36 67.2267 1001.69 67.07 999.717 67.07C988.114 67.07 978.77 70.17 971.685 76.37C964.6 82.57 961.055 92.8067 961.048 107.08V164.74H928.32V35.3H961.048V57.89C968.827 40.95 981.943 32.48 1000.4 32.48Z" fill="white"/>
<path d="M1148.22 164.74H1106.34L1054.86 108.26V164.74H1022.14V0H1054.86V89.19L1102.69 35.3H1144.33L1086.9 97L1148.22 164.74Z" fill="white"/>
<path d="M798.858 0.00976562L721.326 154.97L716.416 164.73H685.934L681.083 154.97H681.102L701.19 114.77V114.74L726.723 63.7198L758.614 0.00976562H798.858Z" fill="url(#paint0_linear_1123_3)"/>
<path d="M701.19 114.77L681.102 154.97H681.083V154.95L701.161 114.77H701.19Z" fill="#FFCE00"/>
<path d="M634.294 114.72V114.77L614.187 155L571.57 69.9399H611.902L619.69 85.5399L634.294 114.72Z" fill="white"/>
<path d="M667.753 47.9299L647.597 88.1399L619.925 32.8799H660.217L663.154 38.8299L667.753 47.9299Z" fill="white"/>
<path d="M701.19 114.74V114.77H701.161L681.083 154.95L667.782 128.42L667.753 128.36L687.841 88.1899H687.889L701.19 114.74Z" fill="white"/>
<path d="M701.19 114.77L681.102 154.97H681.083V154.95L701.161 114.77H701.19Z" fill="black"/>
<path d="M667.753 128.36L654.49 155L649.57 164.76H619.079L614.217 155.03L634.325 114.8L640.965 101.52L647.558 88.19V88.13L667.753 128.36ZM691.72 0L667.753 47.93L687.84 88.19H687.889L731.973 0H691.72Z" fill="url(#paint1_linear_1123_3)"/>
<path d="M687.84 88.1902L667.752 128.36L647.596 88.1402L667.752 47.9302L687.84 88.1902Z" fill="#31564F"/>
<path d="M911.286 92.6C911.286 99.88 910.528 105.08 909.769 107.68H817.75C821.542 122.24 832.159 130.3 845.811 130.3C858.451 130.3 865.023 123.8 867.551 120.94L907.494 122.76C900.416 141.48 879.18 164.88 846.316 164.88C808.649 164.88 778.819 133.42 778.819 94.94C778.819 56.98 809.155 25 846.063 25C883.478 25 911.286 55.16 911.286 92.6ZM845.558 59.06C832.159 59.06 821.289 67.64 817.497 82.2H873.366C870.332 68.68 859.715 59.06 845.558 59.06Z" fill="white"/>
<defs>
<linearGradient id="paint0_linear_1123_3" x1="739.965" y1="164.73" x2="739.965" y2="0.00976562" gradientUnits="userSpaceOnUse">
<stop stop-color="#02B361"/>
<stop offset="1" stop-color="#06D77B"/>
</linearGradient>
<linearGradient id="paint1_linear_1123_3" x1="673.081" y1="164.73" x2="673.081" y2="0.0099948" gradientUnits="userSpaceOnUse">
<stop stop-color="#02B361"/>
<stop offset="1" stop-color="#06D77B"/>
</linearGradient>
</defs>
</svg>
